{
    "accessors" : [
        {
            "bufferView" : 0,
            "componentType" : 5123,
            "count" : 2904,
            "max" : [
                1065
            ],
            "min" : [
                0
            ],
            "type" : "SCALAR"
        },
        {
            "bufferView" : 1,
            "componentType" : 5126,
            "count" : 1066,
            "max" : [
                1.3671875,
                0.984375,
                0.8515625
            ],
            "min" : [
                -1.3671875,
                -0.984375,
                -0.8515625
            ],
            "type" : "VEC3"
        },
        {
            "bufferView" : 2,
            "componentType" : 5126,
            "count" : 1066,
            "max" : [
                0.9989318251609802,
                0.999725341796875,
                0.999969482421875
            ],
            "min" : [
                -0.9989318251609802,
                -0.9862666726112366,
                -0.9753105044364929
            ],
            "type" : "VEC3"
        },
        {
            "bufferView" : 3,
            "componentType" : 5126,
            "count" : 1066,
            "max" : [
                0.9999173879623413,
                0.9996052384376526,
                0.9979711174964905,
                1.0
            ],
            "min" : [
                -0.9992658495903015,
                -0.9991567730903625,
                -0.9989230036735535,
                1.0
            ],
            "type" : "VEC4"
        },
        {
            "bufferView" : 4,
            "componentType" : 5126,
            "count" : 1066,
            "max" : [
                1.0,
                1.0
            ],
            "min" : [
                0.0,
                5.960464477539063e-08
            ],
            "type" : "VEC2"
        },
        {
            "bufferView" : 5,
            "componentType" : 5126,
            "count" : 1066,
            "max" : [
                0.0,
                0.0697738528251648,
                0.0
            ],
            "min" : [
                0.0,
                -0.047634124755859375,
                0.0
            ],
            "type" : "VEC3"
        },
        {
            "bufferView" : 6,
            "componentType" : 5126,
            "count" : 1066,
            "max" : [
                0.28356680274009705,
                0.2274869680404663,
                0.12360596656799316
            ],
            "min" : [
                -0.28356656432151794,
                -0.7626112699508667,
                -0.7210364937782288
            ],
            "type" : "VEC3"
        },
        {
            "bufferView" : 7,
            "componentType" : 5126,
            "count" : 1066,
            "max" : [
                0.9999173879623413,
                0.9981969594955444,
                0.9983536005020142
            ],
            "min" : [
                -0.9913572072982788,
                -0.9965236186981201,
                -0.9991337060928345
            ],
            "type" : "VEC3"
        },
        {
            "bufferView" : 8,
            "componentType" : 5126,
            "count" : 1066,
            "max" : [
                0.0,
                0.07149142026901245,
                0.0
            ],
            "min" : [
                0.0,
                -0.006762683391571045,
                0.0
            ],
            "type" : "VEC3"
        },
        {
            "bufferView" : 9,
            "componentType" : 5126,
            "count" : 1066,
            "max" : [
                0.3672402501106262,
                0.23912358283996582,
                0.1440638303756714
            ],
            "min" : [
                -0.3672402501106262,
                -0.08380264043807983,
                -0.09279531240463257
            ],
            "type" : "VEC3"
        },
        {
            "bufferView" : 10,
            "componentType" : 5126,
            "count" : 1066,
            "max" : [
                0.9999173879623413,
                0.9981969594955444,
                0.9983536005020142
            ],
            "min" : [
                -0.9913572072982788,
                -0.9965236186981201,
                -0.9991337060928345
            ],
            "type" : "VEC3"
        },
        {
            "bufferView" : 11,
            "componentType" : 5126,
            "count" : 1066,
            "max" : [
                0.0,
                0.13852053880691528,
                0.05323788523674011
            ],
            "min" : [
                0.0,
                -0.10427096486091614,
                -0.04909110069274902
            ],
            "type" : "VEC3"
        },
        {
            "bufferView" : 12,
            "componentType" : 5126,
            "count" : 1066,
            "max" : [
                0.27632635831832886,
                0.08724856376647949,
                0.12154150009155273
            ],
            "min" : [
                -0.27632635831832886,
                -0.13658034801483154,
                -0.08740648627281189
            ],
            "type" : "VEC3"
        },
        {
            "bufferView" : 13,
            "componentType" : 5126,
            "count" : 1066,
            "max" : [
                0.9999173879623413,
                0.994073748588562,
                0.9987452030181885
            ],
            "min" : [
                -0.9913572072982788,
                -0.9979802966117859,
                -0.9991337060928345
            ],
            "type" : "VEC3"
        }
    ],
    "asset" : {
        "generator" : "Khronos Blender glTF 2.0 exporter",
        "version" : "2.0"
    },
    "bufferViews" : [
        {
            "buffer" : 0,
            "byteLength" : 5808,
            "byteOffset" : 0,
            "target" : 34963
        },
        {
            "buffer" : 0,
            "byteLength" : 12792,
            "byteOffset" : 5808,
            "target" : 34962
        },
        {
            "buffer" : 0,
            "byteLength" : 12792,
            "byteOffset" : 18600,
            "target" : 34962
        },
        {
            "buffer" : 0,
            "byteLength" : 17056,
            "byteOffset" : 31392,
            "target" : 34962
        },
        {
            "buffer" : 0,
            "byteLength" : 8528,
            "byteOffset" : 48448,
            "target" : 34962
        },
        {
            "buffer" : 0,
            "byteLength" : 12792,
            "byteOffset" : 56976
        },
        {
            "buffer" : 0,
            "byteLength" : 12792,
            "byteOffset" : 69768
        },
        {
            "buffer" : 0,
            "byteLength" : 12792,
            "byteOffset" : 82560
        },
        {
            "buffer" : 0,
            "byteLength" : 12792,
            "byteOffset" : 95352
        },
        {
            "buffer" : 0,
            "byteLength" : 12792,
            "byteOffset" : 108144
        },
        {
            "buffer" : 0,
            "byteLength" : 12792,
            "byteOffset" : 120936
        },
        {
            "buffer" : 0,
            "byteLength" : 12792,
            "byteOffset" : 133728
        },
        {
            "buffer" : 0,
            "byteLength" : 12792,
            "byteOffset" : 146520
        },
        {
            "buffer" : 0,
            "byteLength" : 12792,
            "byteOffset" : 159312
        }
    ],
    "buffers" : [
        {
            "byteLength" : 172104,
            "uri" : "1.bin"
        }
    ],
    "materials" : [
        {
            "name" : "skin",
            "pbrMetallicRoughness" : {}
        }
    ],
    "meshes" : [
        {
            "extras" : {
                "targetNames" : [
                    "M",
                    "Surprise",
                    "Big Ears"
                ]
            },
            "name" : "Suzanne",
            "primitives" : [
                {
                    "attributes" : {
                        "NORMAL" : 2,
                        "POSITION" : 1,
                        "TANGENT" : 3,
                        "TEXCOORD_0" : 4
                    },
                    "indices" : 0,
                    "material" : 0,
                    "targets" : [
                        {
                            "NORMAL" : 6,
                            "POSITION" : 5,
                            "TANGENT" : 7
                        },
                        {
                            "NORMAL" : 9,
                            "POSITION" : 8,
                            "TANGENT" : 10
                        },
                        {
                            "NORMAL" : 12,
                            "POSITION" : 11,
                            "TANGENT" : 13
                        }
                    ]
                }
            ],
            "weights" : [
                1.0,
                0.0,
                0.0
            ]
        }
    ],
    "nodes" : [
        {
            "name" : "Camera",
            "rotation" : [
                0.5761026740074158,
                0.2849815785884857,
                -0.22411222755908966,
                0.7325742244720459
            ],
            "scale" : [
                1.0,
                0.9999999403953552,
                1.0
            ],
            "translation" : [
                4.793499946594238,
                1.7831488847732544,
                5.3079752922058105
            ]
        },
        {
            "mesh" : 0,
            "name" : "Suzanne"
        }
    ],
    "scene" : 0,
    "scenes" : [
        {
            "name" : "Scene",
            "nodes" : [
                0,
                1
            ]
        }
    ]
}
